<svg xmlns="http://www.w3.org/2000/svg" viewBox="0 0 1200 440" width="1200" height="440" role="img" aria-labelledby="title desc">
  <title id="title">Mahad Sajjad — full-stack developer</title>
  <desc id="desc">A profile banner with Mahad Sajjad's name, a short tagline, and a stylized product dashboard.</desc>
  <defs>
    <linearGradient id="background" x1="0" y1="0" x2="1" y2="1">
      <stop stop-color="#f5f9ff"/>
      <stop offset="1" stop-color="#e9f0fb"/>
    </linearGradient>
    <linearGradient id="accent" x1="0" y1="0" x2="1" y2="1">
      <stop stop-color="#0c7890"/>
      <stop offset="1" stop-color="#685fc1"/>
    </linearGradient>
    <radialGradient id="glow" cx="50%" cy="50%" r="50%">
      <stop stop-color="#bcc6fa" stop-opacity=".65"/>
      <stop offset="1" stop-color="#bcc6fa" stop-opacity="0"/>
    </radialGradient>
    <pattern id="grid" width="32" height="32" patternUnits="userSpaceOnUse">
      <path d="M32 0H0V32" fill="none" stroke="#d6e2ef" stroke-width="1"/>
    </pattern>
    <clipPath id="frame"><rect width="1200" height="440" rx="24"/></clipPath>
    <clipPath id="window"><rect x="728" y="62" width="410" height="316" rx="18"/></clipPath>
  </defs>
  <g clip-path="url(#frame)">
    <rect width="1200" height="440" fill="url(#background)"/>
    <rect width="1200" height="440" fill="url(#grid)" opacity=".55"/>
    <circle cx="980" cy="160" r="350" fill="url(#glow)"/>
    <path d="M0 0H1200" stroke="url(#accent)" stroke-width="6"/>
    <path d="M670 48V392" stroke="#c4d2e2" stroke-width="1"/>
    <circle cx="670" cy="221" r="4" fill="#0c7890"/>

    <text x="64" y="70" fill="#0c7890" font-family="Arial, Helvetica, sans-serif" font-size="17" font-weight="700" letter-spacing="4">FULL-STACK DEVELOPER</text>
    <text x="58" y="181" fill="#14243b" font-family="Arial, Helvetica, sans-serif" font-size="96" font-weight="800" letter-spacing="-6">MAHAD</text>
    <text x="58" y="277" fill="#14243b" font-family="Arial, Helvetica, sans-serif" font-size="96" font-weight="800" letter-spacing="-6">SAJJAD<tspan fill="#0c7890">.</tspan></text>
    <rect x="64" y="306" width="54" height="4" rx="2" fill="url(#accent)"/>
    <text x="64" y="345" fill="#435a73" font-family="Arial, Helvetica, sans-serif" font-size="25" font-weight="500">From database to deployment.</text>
    <text x="64" y="405" fill="#647b94" font-family="Arial, Helvetica, sans-serif" font-size="16" letter-spacing="1">MAHADSAJJAD.VERCEL.APP</text>

    <rect x="728" y="62" width="410" height="316" rx="18" fill="#ffffff" stroke="#cad8e7" stroke-width="2"/>
    <g clip-path="url(#window)">
      <rect x="729" y="63" width="408" height="48" fill="#f2f6fb"/>
      <path d="M728 111H1138" stroke="#cad8e7"/>
      <circle cx="754" cy="87" r="5" fill="#e87979"/>
      <circle cx="772" cy="87" r="5" fill="#dba750"/>
      <circle cx="790" cy="87" r="5" fill="#56b5a7"/>
      <rect x="856" y="78" width="166" height="18" rx="9" fill="#e3eaf3"/>
      <text x="870" y="91" fill="#647b94" font-family="Arial, Helvetica, sans-serif" font-size="10" letter-spacing=".5">product / overview</text>

      <rect x="729" y="112" width="76" height="266" fill="#f6f9fc"/>
      <path d="M805 112V378" stroke="#cad8e7"/>
      <rect x="748" y="136" width="38" height="6" rx="3" fill="#0c7890"/>
      <rect x="748" y="158" width="26" height="5" rx="2.5" fill="#b5c5d5"/>
      <rect x="748" y="178" width="32" height="5" rx="2.5" fill="#b5c5d5"/>
      <rect x="748" y="198" width="22" height="5" rx="2.5" fill="#b5c5d5"/>
      <circle cx="766" cy="344" r="13" fill="url(#accent)"/>

      <text x="829" y="146" fill="#14243b" font-family="Arial, Helvetica, sans-serif" font-size="22" font-weight="700">Project overview</text>
      <text x="829" y="167" fill="#647b94" font-family="Arial, Helvetica, sans-serif" font-size="12">Design  /  build  /  ship</text>

      <rect x="829" y="188" width="132" height="67" rx="11" fill="#f9fbff" stroke="#cad8e7"/>
      <text x="843" y="211" fill="#647b94" font-family="Arial, Helvetica, sans-serif" font-size="11">PRODUCT</text>
      <rect x="843" y="224" width="64" height="11" rx="5.5" fill="#0c7890"/>
      <rect x="843" y="241" width="94" height="4" rx="2" fill="#b5c5d5"/>

      <rect x="972" y="188" width="142" height="67" rx="11" fill="#f9fbff" stroke="#cad8e7"/>
      <text x="986" y="211" fill="#647b94" font-family="Arial, Helvetica, sans-serif" font-size="11">STATUS</text>
      <circle cx="992" cy="230" r="4" fill="#138b77"/>
      <text x="1002" y="234" fill="#14243b" font-family="Arial, Helvetica, sans-serif" font-size="13" font-weight="700">Shipped</text>

      <rect x="829" y="269" width="285" height="87" rx="11" fill="#f9fbff" stroke="#cad8e7"/>
      <path d="M846 336H1097M846 314H1097M846 292H1097" stroke="#d6e2ef" stroke-width="1"/>
      <path d="M846 329L879 320L911 326L944 305L977 311L1010 293L1043 301L1075 284L1097 288" fill="none" stroke="url(#accent)" stroke-width="3" stroke-linecap="round" stroke-linejoin="round"/>
      <circle cx="1075" cy="284" r="5" fill="#0c7890"/>
    </g>
    <rect x="1" y="1" width="1198" height="438" rx="23" fill="none" stroke="#c5d3e2" stroke-width="2"/>
  </g>
</svg>
